<?xml version="1.0" encoding="UTF-8"?>
<svg id="Layer_2" data-name="Layer 2" xmlns="http://www.w3.org/2000/svg" viewBox="0 0 159.06 50.88">
  <defs>
    <style>
      .cls-1 {
        fill: #c6cace;
      }

      .cls-2 {
        fill: none;
        stroke: #a67212;
        stroke-miterlimit: 10;
        stroke-width: 5px;
      }

      .cls-3 {
        fill: #a67212;
      }

      .cls-4 {
        fill: #171616;
      }
    </style>
  </defs>
  <g id="Layer_2-2" data-name="Layer 2">
    <g id="THIS">
      <g>
        <path class="cls-1" d="m67.23,50.22v-24.75h6.79c2.73,0,4.68.09,5.86.27,1.09.17,2.05.48,2.88.93.9.53,1.59,1.2,2.08,2.01.48.86.73,1.85.73,2.97,0,1.43-.36,2.55-1.07,3.37-.72.82-1.86,1.44-3.42,1.87,1.71.14,3.09.74,4.12,1.83.99,1.1,1.49,2.58,1.49,4.43,0,1.31-.28,2.46-.85,3.47-.56,1.04-1.36,1.82-2.38,2.35-.79.42-1.83.74-3.11.98-1.33.18-3.37.27-6.11.27h-6.99Zm6.27-14.86h1.35c1.68,0,2.82-.18,3.43-.54.62-.38.93-1.02.93-1.9,0-.93-.29-1.59-.86-1.97-.63-.39-1.76-.59-3.4-.59h-1.45v5Zm0,9.81h2.37c1.6,0,2.73-.21,3.38-.63.68-.38,1.01-1.05,1.01-1.98,0-1.02-.3-1.75-.91-2.19-.61-.41-1.74-.61-3.38-.61h-2.47v5.41Z"/>
        <path class="cls-1" d="m90.46,50.22v-26.2h6.05v26.2h-6.05Z"/>
        <path class="cls-1" d="m135.04,38.76c-.59-.52-1.15-.9-1.69-1.13-.48-.24-1.05-.35-1.71-.35-1.21,0-2.15.39-2.84,1.18-.71.78-1.06,1.85-1.06,3.21s.37,2.34,1.1,3.11c.71.79,1.7,1.18,2.96,1.18.6,0,1.17-.12,1.72-.37.59-.28,1.09-.65,1.52-1.12v5.22c-.72.38-1.45.69-2.18.91-.78.18-1.52.27-2.21.27-2.64,0-4.76-.85-6.37-2.54-.55-.56-1.01-1.18-1.36-1.86-.36-.68-.63-1.41-.81-2.2-.19-.79-.28-1.65-.28-2.59,0-2.69.83-4.88,2.48-6.57,1.65-1.68,3.79-2.53,6.42-2.53.82,0,1.61.09,2.35.27.72.18,1.38.45,1.98.79v5.09Z"/>
        <path class="cls-1" d="m138.78,50.22v-26.2h5.92v16.58l6.2-7.46h7.47l-7.67,8.22,8.37,8.86h-7.93l-6.44-7.59v7.59h-5.92Z"/>
      </g>
      <rect class="cls-2" x="102.69" y="34.04" width="13.64" height="13.64" rx="1.8" ry="1.8"/>
      <rect class="cls-4" x="104.69" y="36.03" width="9.64" height="9.64" rx="1.23" ry="1.23"/>
      <g>
        <path class="cls-3" d="m15.47,29.25c.31,1.98-.46,3.73-2.29,5.24-.44,1-1.12,1.56-2.04,1.69-1.63.23-3.56-.22-5.79-1.35-1.91-.96-3.28-1.96-4.11-3-.79-.97-1.2-1.59-1.24-1.86-.05-.34.13-.76.56-1.26.4-.48.73-.73.99-.77.25-.04.4.11.45.43.02.14.02.32,0,.54.82,1.49,2.28,2.77,4.36,3.83,2.08,1.07,3.88,1.48,5.4,1.24,1.34-.22,1.88-1.24,1.59-3.07-.16-1.01-1.25-2.9-3.28-5.67-2.04-2.77-3.15-4.81-3.35-6.11-.13-.85,0-1.65.37-2.39.32-.62.93-1.39,1.83-2.31.16-.17.34-.27.52-.3.29-.05.46.06.5.31.03.18-.04.37-.21.59-.72.93-.99,1.97-.81,3.12.2,1.28,1.31,3.27,3.34,5.97,2.03,2.7,3.1,4.41,3.21,5.13Zm2.59-15.83c-.2,1.57-.58,2.96-1.14,4.18-.25.54-.53.84-.82.88-.29.04-.82-.11-1.6-.48-.24-.11-.37-.24-.4-.39-.04-.23.13-.42.5-.58.27-.13.52-.68.74-1.64.21-.92.27-1.62.2-2.11-.08-.51-.32-.74-.73-.68-.14.02-.32.07-.53.15-.42.13-1.29.56-2.62,1.29-.16.08-.3.13-.43.15-.33.05-.51-.03-.54-.25-.03-.21.11-.42.42-.64,1.13-.8,2.26-1.5,3.39-2.1.36-.2.62-.31.79-.34.25-.04.63.26,1.15.9.64.09,1.04.17,1.2.24.26.11.42.31.46.6.03.21.02.48-.02.83Z"/>
        <path class="cls-3" d="m25.05,11.43c.33.12.51.28.55.49.02.14-.07.23-.28.26-.04,0-.11,0-.21,0-.1,0-.17,0-.21,0-.42.06-.85.6-1.3,1.6-.4.89-.86,2.77-1.37,5.62-.05.25-.06.4-.03.44.04.07.19.09.45.07.65-.04,1.52-.2,2.58-.47.37-.09.58.04.63.39.04.24-.08.41-.36.51-.22.07-1.42.35-3.58.86-.72,4.04-1.02,7.42-.9,10.12.01.14.03.27.04.38.06.37.18.54.36.52.3-.05,1.08-.9,2.34-2.56.15-.2.3-.32.47-.34.14-.02.24.02.29.14.05.13.03.29-.08.48-.71,1.31-1.42,2.44-2.15,3.39-.31.39-.58.61-.82.65-.24.04-.64-.1-1.21-.4-.65-.07-1.01-.35-1.09-.84-.01-.08-.01-.17,0-.27-.03-2.89.23-6.48.78-10.79-.59.01-1.13.02-1.61.01-.21,0-.34-.12-.37-.35-.04-.25.05-.42.26-.51.21-.09.6-.27,1.16-.55.34-.18.67-.39.97-.65.61-3.8,1.17-6.29,1.67-7.47.29-.67.65-1.04,1.09-1.11.42-.06,1.06.06,1.92.38Z"/>
        <path class="cls-3" d="m34.68,26.6c-2.14,3.81-3.74,5.8-4.83,5.97-.51.08-1.22-.17-2.12-.77-.88-.26-1.37-.71-1.47-1.35-.02-.12-.03-.25-.02-.38-.04-1.53.11-3.25.43-5.16-.44-.14-.67-.31-.7-.5-.02-.15.08-.25.31-.28.17-.03.36,0,.56.06.64-2.34,1.27-4.03,1.91-5.07.41-.69.82-1.07,1.22-1.13.19-.03.67.06,1.45.26-.1-.32-.04-.53.19-.62.01,0,.27-.04.77-.12.47-.07.72-.03.74.14,0,.03,0,.13,0,.29s0,.3.02.43c.06.39.14.88.24,1.46.1.58.17.97.2,1.16.21,1.36-.02,2.36-.68,3.01-.6.6-1.33.96-2.18,1.09-.45.07-1.21.06-2.29-.02-.13.37-.24,1.06-.32,2.08-.11,1.3-.09,2.42.08,3.38.1.57.32.82.67.77.13-.02.3-.08.49-.18,1.2-.64,2.76-2.28,4.67-4.92.12-.16.25-.26.39-.28.21-.03.33.05.36.25.02.12-.02.25-.11.4Zm-3.04-6.96c-.07-.43-.19-.63-.38-.6-.12.02-.28.13-.49.34-.94,1.03-1.65,2.69-2.12,4.98.22,0,.61-.03,1.17-.08.89-.1,1.52-.41,1.89-.91.28-.38.38-.95.29-1.71.05.56-.07-.11-.36-2.03Z"/>
        <path class="cls-3" d="m47.73,19.03c.15,1.87-.03,3.93-.54,6.19-.48,2.1-1.05,3.57-1.71,4.41-.38.47-.79.74-1.24.81-.5.08-1.4-.2-2.7-.83-.25-.12-.39-.26-.42-.42-.03-.21.1-.34.39-.38.12-.02.3,0,.54.03.24.04.43.05.58.03.8-.12,1.44-.74,1.92-1.86.4-.96.73-2.21.98-3.76.3-1.93.3-3.55.02-4.86-.13-.63-.39-.91-.79-.85-.35.05-.74.36-1.17.92-3.02,3.94-4.89,8.38-5.61,13.32-.41,2.81-.57,5.38-.49,7.71,0,.08.15,2,.43,5.77.04.54-.05.83-.27.87-.23.04-.68-.17-1.36-.62-.49-.33-.73-.79-.71-1.37-.36-5.53.03-11.8,1.15-18.82.89-5.49,1.72-9.09,2.47-10.8.45-1,.91-1.52,1.37-1.57.46-.06,1.4.21,2.82.83.19.08.3.19.32.31.02.16-.09.27-.36.31-.07.01-.18.01-.33,0-.16,0-.27,0-.35.01-.69.11-1.32.8-1.88,2.09-.34.73-.72,1.94-1.14,3.62-.43,1.68-.71,3.05-.85,4.11,1.2-2.88,2.73-5.42,4.57-7.63.28-.33.56-.52.82-.56.12-.02.45.1.98.35,1.57.3,2.42,1.18,2.54,2.65Z"/>
        <path class="cls-3" d="m59.73,1.45c.16.09.25.2.27.33.03.2-.08.31-.33.35-.11.02-.23,0-.36-.05-.54-.17-.94-.24-1.19-.2-.67.1-1.31.89-1.93,2.35-2.16,5.15-3.35,11.64-3.57,19.47,1.26-3.7,2.88-6.75,4.86-9.15.43-.51.75-.79.98-.82.07,0,.36.1.89.33.62.15.97.25,1.06.31.32.21.53.62.63,1.25.03.17.05.37.06.58.11,1.98-.08,4.42-.59,7.33.27-.51.7-1.27,1.3-2.27.15-.21.28-.33.4-.35.12-.02.19.04.21.19.03.16-.02.36-.13.59-.49,1.02-1.13,2.49-1.91,4.43-.06.19-.2.68-.43,1.48-.09.37-.26.58-.51.62-.29.04-.73-.08-1.32-.38-.24-.12-.32-.35-.23-.7,1.16-5.02,1.61-8.7,1.36-11.05-.07-.67-.21-.99-.43-.96-.14.02-.42.25-.82.7-.74.81-1.59,2.17-2.55,4.09-1.27,2.53-2.16,5.04-2.69,7.56-.14.72-.31,1.09-.52,1.12-.19.03-.59-.14-1.2-.5-.31-.19-.46-.56-.46-1.11.2-7.15.94-13.34,2.21-18.58.95-3.9,1.94-6.5,2.98-7.82.26-.33.54-.52.84-.57.31-.05.72.07,1.25.35.62.37,1.23.73,1.85,1.09Z"/>
        <path class="cls-3" d="m72.44,20.79c-2.13,3.81-3.74,5.8-4.83,5.97-.51.08-1.22-.17-2.12-.77-.88-.26-1.37-.71-1.47-1.35-.02-.12-.03-.25-.03-.38-.03-1.53.11-3.25.43-5.16-.44-.15-.67-.31-.7-.5-.02-.15.08-.25.31-.28.17-.03.36,0,.56.06.64-2.34,1.27-4.03,1.91-5.07.41-.69.82-1.07,1.22-1.13.19-.03.67.06,1.45.26-.11-.32-.04-.53.19-.62.01,0,.27-.04.77-.12.47-.07.72-.03.74.14,0,.03,0,.13,0,.29,0,.16,0,.3.02.43.06.39.14.88.24,1.46s.17.96.2,1.16c.21,1.36-.02,2.36-.68,3.01-.6.6-1.33.96-2.19,1.09-.45.07-1.21.06-2.29-.02-.13.37-.24,1.06-.32,2.08-.11,1.3-.09,2.42.08,3.38.1.57.32.82.67.77.13-.02.3-.08.49-.18,1.2-.64,2.76-2.28,4.67-4.92.12-.16.25-.26.39-.28.21-.03.33.05.36.25.02.12-.02.25-.11.4Zm-3.04-6.96c-.07-.43-.19-.63-.38-.6-.12.02-.28.13-.49.34-.94,1.03-1.65,2.69-2.12,4.98.22,0,.61-.03,1.17-.08.89-.1,1.52-.41,1.89-.91.28-.38.37-.95.29-1.71.05.56-.07-.11-.36-2.03Z"/>
        <path class="cls-3" d="m86.01,17.5c-.5,1.1-1.13,2.67-1.89,4.73-.12.52-.24,1.05-.35,1.57-.1.36-.28.56-.53.6-.2.03-.5,0-.91-.11-.46-.11-.7-.25-.72-.43-.01-.08.03-.26.13-.54.49-1.55.85-3.45,1.07-5.69.25-2.36.24-4.13-.03-5.31-.1-.48-.24-.7-.44-.67-.14.02-.33.19-.58.51-2.34,3.12-4.17,7.08-5.5,11.9-.17.6-.42.92-.76.97-.24.04-.66-.04-1.26-.23-.23-.06-.36-.14-.39-.23,0-.04.03-.21.11-.49.42-1.49.78-3.35,1.07-5.58.31-2.41.41-4.27.3-5.58-.04-.4-.08-.59-.12-.59-.01,0-.14.17-.39.52-.25.34-.6.79-1.05,1.34-.08.11-.19.18-.31.2-.15.02-.24-.02-.26-.15-.01-.09.03-.19.12-.32.38-.67.88-1.52,1.51-2.53.14-.21.29-.33.47-.36.26-.04.52.12.78.47.93.12,1.41.47,1.43,1.02.07,1.22-.22,3.49-.85,6.8.52-1.52,1.34-3.27,2.47-5.23,1.13-1.96,2.01-3.15,2.64-3.57.32-.21.54-.32.69-.34.14-.02.39.06.74.26.96.18,1.49.63,1.59,1.37.12.77.12,2.03.01,3.78-.08,1.45-.19,2.58-.32,3.39.25-.45.58-1.04.97-1.76.07-.12.15-.19.24-.2.16-.03.26.07.29.27,0,.07,0,.13,0,.2Z"/>
      </g>
    </g>
  </g>
</svg>